<svg height="512pt" viewBox="0 -32 512 512" width="512pt" xmlns="http://www.w3.org/2000/svg"><path d="m189.398438 126.960938v29.136718l47.191406 246.210938c.449218 2.359375.679687 4.753906.679687 7.15625 0 20.996094-17.023437 38.015625-38.015625 38.015625h-161.238281c-20.996094 0-38.015625-17.019531-38.015625-38.015625 0-2.402344.226562-4.800782.679688-7.15625l47.191406-246.210938v-29.136718zm0 0" fill="#dfedff"/><path d="m31.339844 408.1875c-.078125.417969-.121094.847656-.121094 1.277344 0 3.746094 3.050781 6.796875 6.796875 6.796875h161.238281c3.746094 0 6.796875-3.050781 6.796875-6.796875 0-.429688-.042969-.859375-.125-1.28125l-33.332031-173.914063c-.941406-4.902343-5.230469-8.449219-10.222656-8.449219h-87.476563c-4.992187 0-9.28125 3.546876-10.21875 8.449219zm0 0" fill="#fff5f5"/><path d="m205.925781 408.183594-33.332031-173.914063c-.941406-4.902343-5.230469-8.449219-10.222656-8.449219h-13.25l34.953125 182.363282c.078125.421875.121093.851562.121093 1.28125 0 3.746094-3.050781 6.796875-6.796874 6.796875h21.855468c3.746094 0 6.796875-3.050781 6.796875-6.796875 0-.429688-.042969-.859375-.125-1.28125zm0 0" fill="#efe2dd"/><path d="m236.589844 402.308594-47.191406-246.210938v-29.136718h-15.609376v27.160156c0 1.316406.125 2.628906.371094 3.917968l46.820313 244.269532c.449219 2.359375.679687 4.753906.679687 7.15625 0 20.996094-17.019531 38.015625-38.015625 38.015625h15.609375c20.992188 0 38.015625-17.019531 38.015625-38.015625 0-2.402344-.230469-4.796875-.679687-7.15625zm0 0" fill="#c0dbff"/><path d="m189.398438 85.332031 6.390624-6.390625c3.902344-3.902344 6.097657-9.199218 6.097657-14.71875v-8.027344c0-30.75-37.273438-56.195312-83.253907-56.195312-45.976562 0-83.25 25.445312-83.25 56.195312v8.027344c0 5.519532 2.191407 10.816406 6.09375 14.71875l6.394532 6.390625zm0 0" fill="#dce6eb"/><path d="m118.632812 0c-3.167968 0-6.289062.132812-9.363281.367188 41.566407 3.175781 73.882813 27.199218 73.882813 55.828124v8.027344c0 5.519532-2.191406 10.816406-6.09375 14.71875l-6.394532 6.390625h18.734376l6.390624-6.390625c3.902344-3.902344 6.097657-9.199218 6.097657-14.71875v-8.027344c0-30.75-37.273438-56.195312-83.253907-56.195312zm0 0" fill="#c8d2dc"/><path d="m47.871094 85.332031h141.527344v41.628907h-141.527344zm0 0" fill="#dce6eb"/><path d="m175.871094 85.332031v17.691407c0 5.746093-4.660156 10.40625-10.40625 10.40625h-117.59375v13.53125h141.527344v-41.628907zm0 0" fill="#c8d2dc"/><path d="m464.128906 126.960938v29.136718l47.191406 246.210938c.453126 2.359375.679688 4.753906.679688 7.15625 0 20.996094-17.019531 38.015625-38.015625 38.015625h-161.238281c-20.992188 0-38.015625-17.019531-38.015625-38.015625 0-2.402344.230469-4.800782.679687-7.15625l47.191406-246.210938v-29.136718zm0 0" fill="#dfedff"/><path d="m306.070312 408.1875c-.078124.417969-.121093.847656-.121093 1.277344 0 3.746094 3.050781 6.796875 6.796875 6.796875h161.238281c3.746094 0 6.796875-3.050781 6.796875-6.796875 0-.429688-.042969-.859375-.121094-1.28125l-33.335937-173.914063c-.9375-4.902343-5.226563-8.449219-10.21875-8.449219h-87.476563c-4.992187 0-9.28125 3.546876-10.222656 8.449219zm0 0" fill="#b46e5a"/><path d="m480.660156 408.183594-33.335937-173.914063c-.9375-4.902343-5.226563-8.449219-10.21875-8.449219h-13.253907l34.953126 182.363282c.082031.421875.125.851562.125 1.28125 0 3.746094-3.050782 6.796875-6.796876 6.796875h21.851563c3.75 0 6.796875-3.050781 6.796875-6.796875 0-.429688-.042969-.859375-.121094-1.28125zm0 0" fill="#a65d4e"/><path d="m511.320312 402.308594-47.191406-246.210938v-29.136718h-15.609375v27.160156c0 1.316406.125 2.628906.371094 3.917968l46.820313 244.269532c.449218 2.359375.679687 4.753906.679687 7.15625 0 20.996094-17.019531 38.015625-38.015625 38.015625h15.609375c20.996094 0 38.015625-17.019531 38.015625-38.015625 0-2.402344-.226562-4.796875-.679688-7.15625zm0 0" fill="#c0dbff"/><path d="m464.128906 85.332031 6.394532-6.390625c3.902343-3.902344 6.09375-9.199218 6.09375-14.71875v-8.027344c0-30.75-37.273438-56.195312-83.25-56.195312-45.980469 0-83.253907 25.445312-83.253907 56.195312v8.027344c0 5.519532 2.195313 10.816406 6.097657 14.71875l6.390624 6.390625zm0 0" fill="#dce6eb"/><path d="m393.367188 0c-3.167969 0-6.292969.132812-9.367188.367188 41.566406 3.175781 73.886719 27.199218 73.886719 55.828124v8.027344c0 5.519532-2.195313 10.816406-6.097657 14.71875l-6.390624 6.390625h18.730468l6.394532-6.390625c3.902343-3.902344 6.09375-9.199218 6.09375-14.71875v-8.027344c0-30.75-37.273438-56.195312-83.25-56.195312zm0 0" fill="#c8d2dc"/><path d="m322.601562 85.332031h141.527344v41.628907h-141.527344zm0 0" fill="#dce6eb"/><g fill="#c8d2dc"><path d="m450.601562 85.332031v17.691407c0 5.746093-4.660156 10.40625-10.40625 10.40625h-117.59375v13.53125h141.527344v-41.628907zm0 0"/><path d="m126.4375.25v30.96875c0 4.308594-3.496094 7.804688-7.804688 7.804688-4.308593 0-7.804687-3.496094-7.804687-7.804688v-30.96875c2.570313-.1640625 5.171875-.25 7.804687-.25 2.632813 0 5.234376.0820312 7.804688.25zm0 0"/><path d="m157.660156 6.609375v24.609375c0 4.308594-3.5 7.804688-7.804687 7.804688-4.308594 0-7.804688-3.496094-7.804688-7.804688v-27.316406c0-.539063.050781-1.082032.152344-1.589844 5.402344 1.082031 10.574219 2.527344 15.457031 4.296875zm0 0"/><path d="m95.21875 2.277344v28.941406c0 4.308594-3.496094 7.804688-7.804688 7.804688-4.308593 0-7.804687-3.496094-7.804687-7.804688v-24.609375c4.921875-1.792969 10.148437-3.25 15.609375-4.332031zm0 0"/><path d="m401.171875.25v30.96875c0 4.308594-3.496094 7.804688-7.804687 7.804688-4.308594 0-7.804688-3.496094-7.804688-7.804688v-30.96875c2.570312-.1640625 5.171875-.25 7.804688-.25 2.632812 0 5.234374.0820312 7.804687.25zm0 0"/><path d="m432.390625 6.609375v24.609375c0 4.308594-3.496094 7.804688-7.804687 7.804688-4.308594 0-7.804688-3.496094-7.804688-7.804688v-28.941406c5.460938 1.082031 10.6875 2.539062 15.609375 4.332031zm0 0"/><path d="m369.949219 2.277344v28.941406c0 4.308594-3.496094 7.804688-7.804688 7.804688-4.304687 0-7.804687-3.496094-7.804687-7.804688v-24.609375c4.925781-1.792969 10.148437-3.25 15.609375-4.332031zm0 0"/></g></svg>