<?xml version="1.0" encoding="iso-8859-1"?>
<!-- Generator: Adobe Illustrator 19.0.0, SVG Export Plug-In . SVG Version: 6.00 Build 0)  -->
<svg version="1.1" id="Capa_1" xmlns="http://www.w3.org/2000/svg" xmlns:xlink="http://www.w3.org/1999/xlink" x="0px" y="0px"
	 viewBox="0 0 503.018 503.018" style="enable-background:new 0 0 503.018 503.018;" xml:space="preserve">
<polygon style="fill:#24AE5F;" points="377.263,503.018 125.755,503.018 89.825,197.615 413.193,197.615 "/>
<path style="fill:#1B7F43;" d="M413.193,197.615H89.825c-9.926,0-17.965-8.039-17.965-17.965s8.039-17.965,17.965-17.965h323.368
	c9.926,0,17.965,8.039,17.965,17.965S423.119,197.615,413.193,197.615"/>
<path style="fill:#24AE5F;" d="M251.509,0.001c-89.295,0-161.684,72.39-161.684,161.684h323.368
	C413.193,72.39,340.804,0.001,251.509,0.001"/>
<path style="fill:#1B7F43;" d="M210.651,107.79h81.713c17.893,0,33.163-12.935,36.1-30.576l8.74-52.458
	C312.341,9.162,283.022,0,251.511,0c-31.519,0-60.838,9.162-85.702,24.756l8.74,52.458
	C177.497,94.855,192.758,107.79,210.651,107.79"/>
<g>
	<path style="fill:#FFFFFF;" d="M163.074,335.998c-0.406,0-0.812-0.026-1.227-0.079c-4.829-0.671-8.201-5.129-7.53-9.958
		c3.319-24.011,22.343-69.411,70.541-69.411c4.873,0,8.828,3.955,8.828,8.828c0,4.873-3.955,8.828-8.828,8.828
		c-45.038,0-52.745,51.968-53.054,54.175C171.195,332.803,167.408,335.998,163.074,335.998"/>
	<path style="fill:#FFFFFF;" d="M242.509,274.205c-2.26,0-4.52-0.865-6.241-2.586l-26.483-26.483c-3.452-3.452-3.452-9.031,0-12.482
		c3.452-3.452,9.031-3.452,12.482,0l26.483,26.483c3.452,3.452,3.452,9.031,0,12.482
		C247.029,273.34,244.769,274.205,242.509,274.205"/>
	<path style="fill:#FFFFFF;" d="M216.026,300.688c-2.26,0-4.52-0.865-6.241-2.586c-3.452-3.452-3.452-9.031,0-12.482l26.483-26.483
		c3.452-3.452,9.031-3.452,12.482,0c3.452,3.452,3.452,9.031,0,12.482l-26.483,26.483
		C220.546,299.823,218.286,300.688,216.026,300.688"/>
	<path style="fill:#FFFFFF;" d="M321.646,353.062c-2.07,0.906-4.488,1.019-6.755,0.131c-4.545-1.779-6.781-6.891-5.002-11.436
		c16.427-41.967-23.887-67.808-25.614-68.893c-4.125-2.58-5.395-8.017-2.819-12.15c2.575-4.113,7.982-5.409,12.124-2.856
		c18.965,11.727,50.22,45.692,32.746,90.333C325.44,350.458,323.716,352.157,321.646,353.062"/>
	<path style="fill:#FFFFFF;" d="M347.562,355.352l-32.351,14.15c-4.464,1.953-9.673-0.086-11.625-4.55s0.086-9.673,4.55-11.625
		l32.351-14.15c4.464-1.953,9.673,0.086,11.625,4.55C354.065,348.191,352.027,353.399,347.562,355.352"/>
	<path style="fill:#FFFFFF;" d="M315.211,369.501c-4.464,1.953-9.673-0.086-11.625-4.55l-14.15-32.351
		c-1.953-4.464,0.086-9.673,4.55-11.625c4.464-1.953,9.673,0.086,11.625,4.55l14.15,32.351
		C321.714,362.341,319.675,367.549,315.211,369.501"/>
	<path style="fill:#FFFFFF;" d="M244.789,419.576c-16.154,0-33.589-5.297-49.002-20.718c-3.452-3.443-3.452-9.031,0-12.482
		c3.443-3.443,9.031-3.443,12.482,0c31.868,31.868,71.698,5.288,73.375,4.14c4.017-2.737,9.507-1.721,12.262,2.286
		c2.763,4.008,1.766,9.49-2.233,12.253C281.671,411.967,264.148,419.576,244.789,419.576"/>
	<path style="fill:#FFFFFF;" d="M189.543,424.274c-4.873,0-8.828-3.955-8.828-8.828v-35.31c0-4.873,3.955-8.828,8.828-8.828
		c4.873,0,8.828,3.955,8.828,8.828v35.31C198.371,420.319,194.416,424.274,189.543,424.274"/>
	<path style="fill:#FFFFFF;" d="M224.854,388.964h-35.31c-4.873,0-8.828-3.955-8.828-8.828s3.955-8.828,8.828-8.828h35.31
		c4.873,0,8.828,3.955,8.828,8.828S229.727,388.964,224.854,388.964"/>
</g>
<g>
</g>
<g>
</g>
<g>
</g>
<g>
</g>
<g>
</g>
<g>
</g>
<g>
</g>
<g>
</g>
<g>
</g>
<g>
</g>
<g>
</g>
<g>
</g>
<g>
</g>
<g>
</g>
<g>
</g>
</svg>
